<mxfile host="Electron" modified="2024-12-07T10:28:43.369Z" agent="Mozilla/5.0 (Macintosh; Intel Mac OS X 10_15_7) AppleWebKit/537.36 (KHTML, like Gecko) draw.io/24.4.13 Chrome/124.0.6367.207 Electron/30.0.6 Safari/537.36" etag="oLFRe5zhq3fHcTjh73jm" version="24.4.13" type="device">
  <diagram name="Page-1" id="4ujG4V1W7zTK7OB6bx8S">
    <mxGraphModel dx="1188" dy="855" grid="1" gridSize="10" guides="1" tooltips="1" connect="1" arrows="1" fold="1" page="1" pageScale="1" pageWidth="1169" pageHeight="827" math="0" shadow="0">
      <root>
        <mxCell id="0" />
        <mxCell id="1" parent="0" />
        <mxCell id="fvpm9pKdQsnKton72EkD-13" style="rounded=0;orthogonalLoop=1;jettySize=auto;html=1;" edge="1" parent="1" source="fvpm9pKdQsnKton72EkD-1" target="fvpm9pKdQsnKton72EkD-2">
          <mxGeometry relative="1" as="geometry" />
        </mxCell>
        <mxCell id="fvpm9pKdQsnKton72EkD-15" style="edgeStyle=orthogonalEdgeStyle;rounded=0;orthogonalLoop=1;jettySize=auto;html=1;" edge="1" parent="1" source="fvpm9pKdQsnKton72EkD-1" target="fvpm9pKdQsnKton72EkD-4">
          <mxGeometry relative="1" as="geometry" />
        </mxCell>
        <mxCell id="fvpm9pKdQsnKton72EkD-16" style="rounded=0;orthogonalLoop=1;jettySize=auto;html=1;" edge="1" parent="1" source="fvpm9pKdQsnKton72EkD-1" target="fvpm9pKdQsnKton72EkD-6">
          <mxGeometry relative="1" as="geometry" />
        </mxCell>
        <mxCell id="fvpm9pKdQsnKton72EkD-17" style="rounded=0;orthogonalLoop=1;jettySize=auto;html=1;" edge="1" parent="1" source="fvpm9pKdQsnKton72EkD-1" target="fvpm9pKdQsnKton72EkD-5">
          <mxGeometry relative="1" as="geometry" />
        </mxCell>
        <mxCell id="fvpm9pKdQsnKton72EkD-1" value="HomeStorageManager" style="ellipse;whiteSpace=wrap;html=1;strokeWidth=3;" vertex="1" parent="1">
          <mxGeometry x="450" y="270" width="160" height="80" as="geometry" />
        </mxCell>
        <mxCell id="fvpm9pKdQsnKton72EkD-2" value="hsmapiv1" style="ellipse;whiteSpace=wrap;html=1;" vertex="1" parent="1">
          <mxGeometry x="330" y="140" width="120" height="80" as="geometry" />
        </mxCell>
        <mxCell id="fvpm9pKdQsnKton72EkD-3" value="qrcodemanager" style="ellipse;whiteSpace=wrap;html=1;" vertex="1" parent="1">
          <mxGeometry x="260" y="300" width="120" height="80" as="geometry" />
        </mxCell>
        <mxCell id="fvpm9pKdQsnKton72EkD-4" value="storagemanager" style="ellipse;whiteSpace=wrap;html=1;strokeWidth=2;" vertex="1" parent="1">
          <mxGeometry x="470" y="414" width="120" height="80" as="geometry" />
        </mxCell>
        <mxCell id="fvpm9pKdQsnKton72EkD-5" value="admin" style="ellipse;whiteSpace=wrap;html=1;" vertex="1" parent="1">
          <mxGeometry x="610" y="140" width="120" height="80" as="geometry" />
        </mxCell>
        <mxCell id="fvpm9pKdQsnKton72EkD-6" value="allauth" style="ellipse;whiteSpace=wrap;html=1;" vertex="1" parent="1">
          <mxGeometry x="670" y="300" width="120" height="80" as="geometry" />
        </mxCell>
        <mxCell id="fvpm9pKdQsnKton72EkD-7" value="Mitgelieferte Standard-App&lt;br&gt;(django.contrib.admin)" style="text;html=1;align=center;verticalAlign=middle;whiteSpace=wrap;rounded=0;" vertex="1" parent="1">
          <mxGeometry x="750" y="160" width="170" height="30" as="geometry" />
        </mxCell>
        <mxCell id="fvpm9pKdQsnKton72EkD-8" value="Drittanbieter App für die Realisierung der Authentication" style="text;html=1;align=center;verticalAlign=middle;whiteSpace=wrap;rounded=0;" vertex="1" parent="1">
          <mxGeometry x="750" y="260" width="170" height="30" as="geometry" />
        </mxCell>
        <mxCell id="fvpm9pKdQsnKton72EkD-9" value="Eigene App zur Abbildung der API unter Verwendung des Django Rest-Frameworks (rest_framework)" style="text;html=1;align=center;verticalAlign=middle;whiteSpace=wrap;rounded=0;" vertex="1" parent="1">
          <mxGeometry x="110" y="160" width="210" height="30" as="geometry" />
        </mxCell>
        <mxCell id="fvpm9pKdQsnKton72EkD-10" value="Django-Projekt" style="text;html=1;align=center;verticalAlign=middle;whiteSpace=wrap;rounded=0;" vertex="1" parent="1">
          <mxGeometry x="470" y="240" width="130" height="30" as="geometry" />
        </mxCell>
        <mxCell id="fvpm9pKdQsnKton72EkD-11" value="Eigene App für die Erstellung der QR-Codes" style="text;html=1;align=center;verticalAlign=middle;whiteSpace=wrap;rounded=0;" vertex="1" parent="1">
          <mxGeometry x="120" y="280" width="150" height="30" as="geometry" />
        </mxCell>
        <mxCell id="fvpm9pKdQsnKton72EkD-12" value="Stellt die Haupt-App dar und beinhaltet alle zentrale Funktionitäten" style="text;html=1;align=center;verticalAlign=middle;whiteSpace=wrap;rounded=0;" vertex="1" parent="1">
          <mxGeometry x="600" y="464" width="150" height="30" as="geometry" />
        </mxCell>
        <mxCell id="fvpm9pKdQsnKton72EkD-14" style="rounded=0;orthogonalLoop=1;jettySize=auto;html=1;entryX=0.992;entryY=0.338;entryDx=0;entryDy=0;entryPerimeter=0;" edge="1" parent="1" source="fvpm9pKdQsnKton72EkD-1" target="fvpm9pKdQsnKton72EkD-3">
          <mxGeometry relative="1" as="geometry" />
        </mxCell>
      </root>
    </mxGraphModel>
  </diagram>
</mxfile>
